HIERARCHY
ROOT Hips
{
  OFFSET 5.84602e-005 68.8428 3.50346
  CHANNELS 6 Xposition Yposition Zposition Zrotation Xrotation Yrotation
  JOINT Spine
  {
    OFFSET 0 8.597 -4.6522
    CHANNELS 3 Zrotation Xrotation Yrotation
    JOINT Spine1
    {
      OFFSET 0 7.8454 0.4098
      CHANNELS 3 Zrotation Xrotation Yrotation
      JOINT Spine2
      {
        OFFSET 0 9.7078 -2.1609
        CHANNELS 3 Zrotation Xrotation Yrotation
        JOINT Neck
        {
          OFFSET 0 21.8761 -0.4549
          CHANNELS 3 Zrotation Xrotation Yrotation
          JOINT Head
          {
            OFFSET 0 12.3537 3.3602
            CHANNELS 3 Zrotation Xrotation Yrotation
            End Site
            {
              OFFSET 0.0001 18.9506 0.5657
            }
          }
        }
        JOINT LeftShoulder
        {
          OFFSET 2.2086 21.1115 7.2329
          CHANNELS 3 Zrotation Xrotation Yrotation
          JOINT LeftArm
          {
            OFFSET 13.1193 3.0282 -4.8998
            CHANNELS 3 Zrotation Xrotation Yrotation
            JOINT LeftForeArm
            {
              OFFSET 27.4081 -0.0973053 -0.2375
              CHANNELS 3 Zrotation Xrotation Yrotation
              JOINT LeftHand
              {
                OFFSET 22.8641 0.0662994 -0.1369
                CHANNELS 3 Zrotation Xrotation Yrotation
                JOINT LeftHandIndex1
                {
                  OFFSET 8.8614 0.775009 2.4612
                  CHANNELS 3 Zrotation Xrotation Yrotation
                  JOINT LeftHandIndex2
                  {
                    OFFSET 3.3146 -0.808304 0.5841
                    CHANNELS 3 Zrotation Xrotation Yrotation
                    JOINT LeftHandIndex3
                    {
                      OFFSET 2.2628 -0.552002 0.3989
                      CHANNELS 3 Zrotation Xrotation Yrotation
                      End Site
                      {
                        OFFSET 1.6102 -0.4807 0.2612
                      }
                    }
                  }
                }
                JOINT LeftHandMiddle1
                {
                  OFFSET 8.9937 0.895004 0.2143
                  CHANNELS 3 Zrotation Xrotation Yrotation
                  JOINT LeftHandMiddle2
                  {
                    OFFSET 4.0984 0.0113983 -0.0242
                    CHANNELS 3 Zrotation Xrotation Yrotation
                    JOINT LeftHandMiddle3
                    {
                      OFFSET 2.2716 0.00689697 -0.0138001
                      CHANNELS 3 Zrotation Xrotation Yrotation
                      End Site
                      {
                        OFFSET 2.0404 -0.1441 0.0027
                      }
                    }
                  }
                }
                JOINT LeftHandRing1
                {
                  OFFSET 8.5234 0.597198 -2.0164
                  CHANNELS 3 Zrotation Xrotation Yrotation
                  JOINT LeftHandRing2
                  {
                    OFFSET 3.7188 -0.188293 -0.2328
                    CHANNELS 3 Zrotation Xrotation Yrotation
                    JOINT LeftHandRing3
                    {
                      OFFSET 2.1191 -0.106598 -0.1332
                      CHANNELS 3 Zrotation Xrotation Yrotation
                      End Site
                      {
                        OFFSET 1.8737 -0.2304 -0.0886
                      }
                    }
                  }
                }
                JOINT LeftHandPinky1
                {
                  OFFSET 7.9094 -0.601089 -3.4825
                  CHANNELS 3 Zrotation Xrotation Yrotation
                  JOINT LeftHandPinky2
                  {
                    OFFSET 2.2874 -0.477005 -0.6314
                    CHANNELS 3 Zrotation Xrotation Yrotation
                    JOINT LeftHandPinky3
                    {
                      OFFSET 1.6774 -0.349396 -0.4633
                      CHANNELS 3 Zrotation Xrotation Yrotation
                      End Site
                      {
                        OFFSET 1.4888 -0.4091 -0.3416
                      }
                    }
                  }
                }
                JOINT LeftHandThumb1
                {
                  OFFSET 1.833 -1.3875 1.3896
                  CHANNELS 3 Zrotation Xrotation Yrotation
                  JOINT LeftHandThumb2
                  {
                    OFFSET 3.4129 -1.121 2.5732
                    CHANNELS 3 Zrotation Xrotation Yrotation
                    JOINT LeftHandThumb3
                    {
                      OFFSET 2.2474 -0.804199 1.6192
                      CHANNELS 3 Zrotation Xrotation Yrotation
                      End Site
                      {
                        OFFSET 1.6527 -0.5689 1.1317
                      }
                    }
                  }
                }
              }
            }
          }
        }
        JOINT RightShoulder
        {
          OFFSET -2.2086 21.1115 7.2329
          CHANNELS 3 Zrotation Xrotation Yrotation
          JOINT RightArm
          {
            OFFSET -13.1216 3.0287 -4.9007
            CHANNELS 3 Zrotation Xrotation Yrotation
            JOINT RightForeArm
            {
              OFFSET -27.4081 -0.0973053 -0.2375
              CHANNELS 3 Zrotation Xrotation Yrotation
              JOINT RightHand
              {
                OFFSET -22.8641 0.0664063 -0.1369
                CHANNELS 3 Zrotation Xrotation Yrotation
                JOINT RightHandIndex1
                {
                  OFFSET -8.8614 0.774994 2.4612
                  CHANNELS 3 Zrotation Xrotation Yrotation
                  JOINT RightHandIndex2
                  {
                    OFFSET -3.3146 -0.808304 0.5841
                    CHANNELS 3 Zrotation Xrotation Yrotation
                    JOINT RightHandIndex3
                    {
                      OFFSET -2.2628 -0.552002 0.3989
                      CHANNELS 3 Zrotation Xrotation Yrotation
                      End Site
                      {
                        OFFSET -1.6102 -0.4807 0.2612
                      }
                    }
                  }
                }
                JOINT RightHandMiddle1
                {
                  OFFSET -8.9937 0.894989 0.2143
                  CHANNELS 3 Zrotation Xrotation Yrotation
                  JOINT RightHandMiddle2
                  {
                    OFFSET -4.0984 0.0113983 -0.0242
                    CHANNELS 3 Zrotation Xrotation Yrotation
                    JOINT RightHandMiddle3
                    {
                      OFFSET -2.2716 0.00691223 -0.0138001
                      CHANNELS 3 Zrotation Xrotation Yrotation
                      End Site
                      {
                        OFFSET -2.0404 -0.1441 0.0027
                      }
                    }
                  }
                }
                JOINT RightHandRing1
                {
                  OFFSET -8.5234 0.597198 -2.0164
                  CHANNELS 3 Zrotation Xrotation Yrotation
                  JOINT RightHandRing2
                  {
                    OFFSET -3.7188 -0.188309 -0.2328
                    CHANNELS 3 Zrotation Xrotation Yrotation
                    JOINT RightHandRing3
                    {
                      OFFSET -2.1191 -0.106598 -0.1332
                      CHANNELS 3 Zrotation Xrotation Yrotation
                      End Site
                      {
                        OFFSET -1.8737 -0.2304 -0.0886
                      }
                    }
                  }
                }
                JOINT RightHandPinky1
                {
                  OFFSET -7.9094 -0.601105 -3.4825
                  CHANNELS 3 Zrotation Xrotation Yrotation
                  JOINT RightHandPinky2
                  {
                    OFFSET -2.2874 -0.477005 -0.6314
                    CHANNELS 3 Zrotation Xrotation Yrotation
                    JOINT RightHandPinky3
                    {
                      OFFSET -1.6774 -0.349396 -0.4633
                      CHANNELS 3 Zrotation Xrotation Yrotation
                      End Site
                      {
                        OFFSET -1.4888 -0.4091 -0.3416
                      }
                    }
                  }
                }
                JOINT RightHandThumb1
                {
                  OFFSET -1.833 -1.38751 1.3896
                  CHANNELS 3 Zrotation Xrotation Yrotation
                  JOINT RightHandThumb2
                  {
                    OFFSET -3.41299 -1.12099 2.5732
                    CHANNELS 3 Zrotation Xrotation Yrotation
                    JOINT RightHandThumb3
                    {
                      OFFSET -2.24741 -0.804108 1.6192
                      CHANNELS 3 Zrotation Xrotation Yrotation
                      End Site
                      {
                        OFFSET -1.6527 -0.5689 1.1317
                      }
                    }
                  }
                }
              }
            }
          }
        }
      }
    }
  }
  JOINT RightUpLeg
  {
    OFFSET -9.1966 3.8861 -0.7581
    CHANNELS 3 Zrotation Xrotation Yrotation
    JOINT RightLeg
    {
      OFFSET -0.7359 -41.0265 0
      CHANNELS 3 Zrotation Xrotation Yrotation
      JOINT RightFoot
      {
        OFFSET 0 -40.2855 0
        CHANNELS 3 Zrotation Xrotation Yrotation
        JOINT RightToeBase
        {
          OFFSET 0 -5.6122 11.7359
          CHANNELS 3 Zrotation Xrotation Yrotation
          End Site
          {
            OFFSET 0 0 7.8731
          }
        }
      }
    }
  }
  JOINT LeftUpLeg
  {
    OFFSET 9.1965 3.8864 -0.7581
    CHANNELS 3 Zrotation Xrotation Yrotation
    JOINT LeftLeg
    {
      OFFSET 0.7359 -41.0268 0
      CHANNELS 3 Zrotation Xrotation Yrotation
      JOINT LeftFoot
      {
        OFFSET 0 -40.2855 0
        CHANNELS 3 Zrotation Xrotation Yrotation
        JOINT LeftToeBase
        {
          OFFSET 0 -5.6122 11.7359
          CHANNELS 3 Zrotation Xrotation Yrotation
          End Site
          {
            OFFSET 0 0 7.8731
          }
        }
      }
    }
  }
}
MOTION
Frames:	7
Frame Time:	0.0333333
5.84602e-005 68.8428 3.50346 0 0 -0 0 0 -0 0 0 -0 0 0 -0 -1.6278e-010 1.76049e-022 0.00599323 4.72659e-027 -3.2771e-030 -0 -0 0 0.00599323 0 0 -0 0 0 -0 0 0 -0 0 0 -0 0 0 -0 0 0 -0 0 0 -0 -0.0146107 -8.87602e-005 -2.63531e-007 1.64822e-018 1.21329e-020 -0 0 0 -0 -0.0187535 -0.00117581 5.9011e-005 9.7483e-018 0 1.55301e-018 0 0 -0 -0.0122987 -0.00325603 0.000676934 4.03166e-018 0 -1.55301e-018 0 0 -0 0 0 -0 0 0 -0 -0 0 0.00599323 0 0 -0 0 0 -0 0 0 -0 0 0 -0 0 0 -0 0 0 -0 0 0 -0 0.0149956 -9.10983e-005 2.64135e-007 5.59203e-018 0 1.55301e-018 0 0 -0 0.0189987 -0.0011912 -5.94362e-005 -6.81641e-018 5.82377e-019 7.76503e-019 0 0 -0 0.0122408 -0.00324051 -0.000673758 -6.2816e-018 0 -7.76503e-019 0 0 -0 0 0 -0 0 0 -0 3.39842 1.33031 -0.0637918 -5.65207e-008 0.834868 -0.000436188 -3.39935 -2.16518 -0.0642563 -8.89002e-024 -1.18485e-023 -1.48106e-024 -3.39844 1.35642 0.0640283 -3.18788e-007 0.782166 -0.000588827 3.39931 -2.13858 0.0634662 1.1399e-023 0 -0 
39.7391 29.7735 40.599 0 63.9974 -0 -0.411852 10.7976 -0.0149914 -0.843936 21.5953 0.0521534 -0.843936 21.5953 0.0521533 -4.3461e-006 -50.001 -1.54765e-006 -6.17833e-008 -54.0014 1.72866e-007 -13.9407 -3.84509 4.06596 35.6242 -28.172 -69.6061 3.76075 -10.3648 -14.2522 59.999 -1.55063e-006 5.35574e-006 -0 -1.59028e-015 -0 3.08973e-031 -5.56597e-015 3.18055e-015 3.18055e-015 -3.18055e-015 1.59028e-015 -0 -1.59028e-015 -0 -0.0145854 -8.79494e-005 -3.17807e-006 1.32417e-031 -2.38542e-015 3.18055e-015 -0 -1.59028e-015 -0 -0.0187971 -0.00117932 6.45651e-005 -3.18055e-015 7.95139e-016 1.59028e-015 -0 -1.59028e-015 -0 -0.0123272 -0.00326083 0.000673474 -0 0 1.59028e-015 -0 -1.59028e-015 -0 3.08973e-031 -5.56597e-015 3.18055e-015 3.18055e-015 -3.18055e-015 1.59028e-015 13.9371 -3.84538 -4.06956 -35.6318 -28.1686 69.5868 -3.76458 -10.3651 14.2483 -60.003 7.36897e-006 2.52985e-007 6.36111e-015 2.38542e-015 7.95139e-015 1.59028e-014 3.18055e-015 6.36111e-015 6.36111e-015 1.59028e-015 4.77083e-015 6.36111e-015 2.38542e-015 7.95139e-015 0.0150046 -8.93362e-005 4.79763e-006 -3.56011e-007 2.28039e-007 2.99862e-006 6.36111e-015 2.38542e-015 7.95139e-015 0.018989 -0.00118962 -5.76357e-005 -6.36111e-015 -7.95139e-016 -0 6.36111e-015 2.38542e-015 7.95139e-015 0.0123444 -0.00326882 -0.000678953 -6.36111e-015 3.18055e-015 -3.18055e-015 6.36111e-015 2.38542e-015 7.95139e-015 1.59028e-014 3.18055e-015 6.36111e-015 6.36111e-015 1.59028e-015 4.77083e-015 -15.6678 -66.0561 -20.9991 -165.246 79.3128 164.631 -11.6983 48.33 3.43961 5.72875e-008 7.05308e-007 2.05089e-007 15.5996 -66.0635 20.8355 165.769 79.3211 -165.119 11.681 48.3182 -3.46124 1.23882e-007 -5.66589e-009 4.08007e-007 
39.7391 29.8461 40.4724 0 64.4413 -0 -0.411089 10.5026 -0.0193469 -0.840286 21.0051 0.0405436 -0.840286 21.0051 0.0405438 1.79409e-006 -50.0014 -9.65436e-007 9.8759e-008 -54.0014 4.63815e-007 -14.2486 -3.06658 4.54128 35.6775 -28.3046 -69.8322 3.76075 -10.3648 -14.2522 59.7386 0.0707057 -0.12364 1.27222e-014 3.18055e-015 1.59028e-015 1.27222e-014 7.95139e-016 1.59028e-015 3.18055e-015 1.59028e-015 1.59028e-015 1.27222e-014 3.18055e-015 1.59028e-015 -0.0146442 -8.88495e-005 -4.29474e-007 4.41391e-032 1.59028e-015 -1.59028e-015 1.27222e-014 3.18055e-015 1.59028e-015 -0.0187367 -0.00117459 5.37485e-005 -1.75673e-007 1.29928e-006 -5.98222e-006 1.27222e-014 3.18055e-015 1.59028e-015 -0.0122253 -0.00323627 0.000668881 -3.18055e-015 5.56597e-015 3.18055e-015 1.27222e-014 3.18055e-015 1.59028e-015 1.27222e-014 7.95139e-016 1.59028e-015 3.18055e-015 1.59028e-015 1.59028e-015 14.1914 -3.05483 -4.45601 -35.6758 -28.2741 69.7739 -3.76459 -10.3651 14.2483 -59.7517 0.0514459 0.129826 -5.15293e-007 6.62879e-007 -1.23489e-007 3.18055e-015 2.38542e-015 -4.77083e-015 3.18055e-015 2.38542e-015 -3.18055e-015 -5.15293e-007 6.62879e-007 -1.23489e-007 0.0149666 -9.15405e-005 1.46118e-006 3.18055e-015 3.18055e-015 1.59028e-015 -5.15293e-007 6.62879e-007 -1.23489e-007 0.01901 -0.00119075 -4.90819e-005 -3.18055e-015 2.38542e-015 3.18055e-015 -5.15293e-007 6.62879e-007 -1.23489e-007 0.0122326 -0.00323929 -0.000680763 4.41391e-032 -1.59028e-015 1.59028e-015 -5.15293e-007 6.62879e-007 -1.23489e-007 3.18055e-015 2.38542e-015 -4.77083e-015 3.18055e-015 2.38542e-015 -3.18055e-015 -16.029 -66.6604 -21.3733 -165.247 79.3121 164.632 -11.6983 48.3295 3.43949 1.01949e-007 4.93918e-009 -3.11365e-008 15.9502 -66.6684 21.1986 165.768 79.3221 -165.118 11.6809 48.3176 -3.4611 -1.01952e-007 4.91783e-009 3.11309e-008 
39.7391 29.919 40.3461 0 64.8852 -0 -0.410187 10.2057 -0.0236552 -0.836457 20.4113 0.0290514 -0.836457 20.4113 0.0290509 -2.44049e-006 -50.0014 -1.64987e-006 3.85509e-007 -54.0014 2.87501e-007 -14.5632 -2.28976 5.02104 35.7303 -28.4375 -70.0586 3.76076 -10.3648 -14.2522 59.4783 0.142 -0.246963 1.82736e-006 -4.30656e-007 -7.99099e-008 -1.11453e-006 -2.44732e-007 6.17495e-006 1.65226e-006 8.89545e-007 -6.05614e-006 1.82736e-006 -4.30656e-007 -7.99099e-008 -0.0145619 -8.71036e-005 -3.37951e-006 1.82732e-006 -4.30646e-007 -7.9966e-008 1.82736e-006 -4.30656e-007 -7.99099e-008 -0.018792 -0.001177 6.1758e-005 1.64982e-006 8.90388e-007 -6.05601e-006 1.82736e-006 -4.30656e-007 -7.99099e-008 -0.012215 -0.00323303 0.000668211 1.65055e-006 8.89771e-007 -6.05601e-006 1.82736e-006 -4.30656e-007 -7.99099e-008 -1.11453e-006 -2.44732e-007 6.17495e-006 1.65226e-006 8.89545e-007 -6.05614e-006 14.4511 -2.2652 -4.84613 -35.7193 -28.3798 69.961 -3.76458 -10.3651 14.2483 -59.5006 0.103485 0.259447 3.18055e-015 4.77083e-015 -0 4.41391e-032 1.59028e-015 -1.59028e-015 8.82781e-032 3.18055e-015 -1.59028e-015 3.18055e-015 4.77083e-015 -0 0.0150325 -9.27126e-005 -2.63869e-006 -3.18055e-015 2.38542e-015 -0 3.18055e-015 4.77083e-015 -0 0.0189906 -0.00119114 -6.06452e-005 3.18055e-015 -3.18055e-015 1.59028e-015 3.18055e-015 4.77083e-015 -0 0.0123464 -0.00326836 -0.000680777 -0 -2.38542e-015 -0 3.18055e-015 4.77083e-015 -0 4.41391e-032 1.59028e-015 -1.59028e-015 8.82781e-032 3.18055e-015 -1.59028e-015 -16.4003 -67.2619 -21.7584 -165.245 79.3145 164.628 -11.6982 48.3289 3.43936 -3.62412e-007 3.25088e-006 1.81164e-008 16.3325 -67.2757 21.5923 165.771 79.3186 -165.123 11.6809 48.3171 -3.46099 -2.03804e-007 9.87189e-009 6.2583e-008 
39.7391 29.9923 40.2201 0 65.3293 -0 -0.409248 9.90727 -0.0279587 -0.832651 19.8145 0.0176104 -0.832652 19.8145 0.0176102 6.3973e-007 -50.0014 1.01604e-006 1.01426e-007 -54.0014 8.24144e-008 -14.8844 -1.51484 5.50534 35.7825 -28.5705 -70.2851 3.76077 -10.3648 -14.2522 59.2181 0.213855 -0.36993 -3.18055e-015 -1.59028e-015 1.59028e-015 -3.18055e-015 0 -0 0 0 -1.59028e-015 -3.18055e-015 -1.59028e-015 1.59028e-015 -0.0146393 -9.01782e-005 3.84878e-006 -6.36111e-015 2.38542e-015 -1.59028e-015 -3.18055e-015 -1.59028e-015 1.59028e-015 -0.0187259 -0.00117372 5.6181e-005 -0 0 4.77083e-015 -3.18055e-015 -1.59028e-015 1.59028e-015 -0.0122805 -0.00324939 0.000674135 6.36111e-015 3.18055e-015 -1.59028e-015 -3.18055e-015 -1.59028e-015 1.59028e-015 -3.18055e-015 0 -0 0 0 -1.59028e-015 14.7164 -1.47664 -5.24001 -35.7626 -28.4856 70.1483 -3.76459 -10.3651 14.2483 -59.2495 0.156091 0.388851 6.36111e-015 -1.59028e-015 -0 3.18055e-015 -7.95139e-016 -0 0 0 -0 6.36111e-015 -1.59028e-015 -0 0.0149682 -9.34187e-005 -1.45955e-006 3.18055e-015 -2.38542e-015 1.59028e-015 6.36111e-015 -1.59028e-015 -0 0.0190304 -0.00119644 -6.59974e-005 1.27222e-014 1.59028e-015 -1.59028e-015 6.36111e-015 -1.59028e-015 -0 0.0122208 -0.00323653 -0.000679949 6.36111e-015 -4.77083e-015 -1.59028e-015 6.36111e-015 -1.59028e-015 -0 3.18055e-015 -7.95139e-016 -0 0 0 -0 -16.8038 -67.8653 -22.1747 -165.247 79.3129 164.631 -11.6982 48.3283 3.43923 2.27672e-007 1.04951e-008 3.75944e-007 16.7294 -67.881 22.001 165.772 79.3171 -165.125 11.6809 48.3166 -3.46088 -1.25809e-007 5.52661e-009 -4.07408e-007 
39.7391 30.066 40.0944 0 65.7734 -0 -0.408274 9.60743 -0.0322538 -0.828872 19.215 0.00622856 -0.828872 19.215 0.00622854 2.28147e-007 -50.0014 9.39232e-008 -8.03337e-007 -54.0014 -9.5506e-007 -15.2123 -0.741992 5.99427 35.8343 -28.7038 -70.5118 3.76076 -10.3648 -14.2522 58.958 0.286259 -0.49263 -3.18055e-015 1.59028e-015 1.59028e-015 -3.18055e-015 0 -0 -3.18055e-015 7.95139e-016 1.59028e-015 -3.18055e-015 1.59028e-015 1.59028e-015 -0.0145851 -8.74636e-005 -3.3811e-006 -3.18055e-015 0 -1.59028e-015 -3.18055e-015 1.59028e-015 1.59028e-015 -0.0187877 -0.00117749 5.95107e-005 6.36111e-015 7.95139e-016 -1.59028e-015 -3.18055e-015 1.59028e-015 1.59028e-015 -0.0123401 -0.00326758 0.000681823 -0 0 4.77083e-015 -3.18055e-015 1.59028e-015 1.59028e-015 -3.18055e-015 0 -0 -3.18055e-015 7.95139e-016 1.59028e-015 14.9872 -0.689313 -5.63775 -35.8054 -28.5915 70.3357 -3.76459 -10.3651 14.2484 -58.9985 0.209266 0.518012 -3.18055e-015 1.59028e-015 -1.59028e-015 -9.54166e-015 -1.59028e-015 -1.59028e-015 -9.54166e-015 2.38542e-015 -0 -3.18055e-015 1.59028e-015 -1.59028e-015 0.015041 -9.17366e-005 -2.23038e-006 -6.36111e-015 7.95139e-015 -0 -3.18055e-015 1.59028e-015 -1.59028e-015 0.0189957 -0.00119179 -5.87697e-005 -4.03938e-007 1.70908e-007 3.01471e-006 -3.18055e-015 1.59028e-015 -1.59028e-015 0.0123149 -0.00326076 -0.000681573 6.36111e-015 3.18055e-015 4.77083e-015 -3.18055e-015 1.59028e-015 -1.59028e-015 -9.54166e-015 -1.59028e-015 -1.59028e-015 -9.54166e-015 2.38542e-015 -0 -17.2243 -68.4663 -22.6083 -165.246 79.3133 164.63 -11.6982 48.3278 3.4391 -3.97569e-016 1.27222e-014 1.59028e-015 17.1308 -68.4807 22.4156 165.768 79.3222 -165.117 11.6809 48.316 -3.46072 -7.71516e-008 4.46434e-009 4.70432e-007 
39.7391 30.14 39.9689 0 66.2177 -0 -0.407266 9.3065 -0.0365354 -0.825121 18.6132 -0.00508271 -0.825121 18.6132 -0.0050826 -1.45859e-006 -50.0014 -7.66248e-007 4.99733e-008 -54.0014 2.06017e-007 -15.5471 0.028578 6.48794 35.8855 -28.8372 -70.7386 3.76075 -10.3648 -14.2522 58.6981 0.359247 -0.614984 1.28835e-006 -1.07615e-006 -1.95668e-007 -1.28835e-006 1.07615e-006 1.95668e-007 1.28835e-006 -1.07615e-006 -1.95668e-007 1.28835e-006 -1.07615e-006 -1.95668e-007 -0.0146069 -8.40679e-005 -8.40017e-006 1.28832e-006 -1.07613e-006 -1.95806e-007 1.28835e-006 -1.07615e-006 -1.95668e-007 -0.0187798 -0.00117629 5.82335e-005 1.28831e-006 -1.07612e-006 -1.95857e-007 1.28835e-006 -1.07615e-006 -1.95668e-007 -0.0122705 -0.00324741 0.000675197 1.28832e-006 -1.07614e-006 -1.95818e-007 1.28835e-006 -1.07615e-006 -1.95668e-007 -1.28835e-006 1.07615e-006 1.95668e-007 1.28835e-006 -1.07615e-006 -1.95668e-007 15.2636 0.096633 -6.03944 -35.848 -28.6976 70.5231 -3.76458 -10.3651 14.2483 -58.7476 0.263003 0.646983 -4.41391e-032 1.59028e-015 1.59028e-015 3.18055e-015 7.95139e-016 1.59028e-015 3.18055e-015 7.95139e-016 -0 -4.41391e-032 1.59028e-015 1.59028e-015 0.014946 -9.03218e-005 5.84252e-007 4.41391e-032 7.95139e-016 -3.18055e-015 -4.41391e-032 1.59028e-015 1.59028e-015 0.0189343 -0.00118686 -5.72333e-005 9.54166e-015 -2.38542e-015 -1.59028e-015 -4.41391e-032 1.59028e-015 1.59028e-015 0.0122501 -0.00324169 -0.000668207 6.36111e-015 4.77083e-015 3.18055e-015 -4.41391e-032 1.59028e-015 1.59028e-015 3.18055e-015 7.95139e-016 1.59028e-015 3.18055e-015 7.95139e-016 -0 -17.6662 -69.0655 -23.0637 -165.245 79.315 164.627 -11.6982 48.3273 3.439 3.05248e-007 1.50245e-008 -9.53249e-008 17.5715 -69.0833 22.8684 165.768 79.3216 -165.118 11.6809 48.3154 -3.46061 -3.70061e-007 -7.95148e-007 -1.0016e-007 
